{
    "asset" : {
        "generator" : "Khronos glTF Blender I/O v1.4.40",
        "version" : "2.0"
    },
    "extensionsUsed" : [
        "KHR_materials_clearcoat"
    ],
    "scene" : 0,
    "scenes" : [
        {
            "name" : "Scene",
            "nodes" : [
                0,
                1,
                2,
                3
            ]
        }
    ],
    "nodes" : [
        {
            "mesh" : 0,
            "name" : "Mesh_0.002",
            "rotation" : [
                -0.07486890256404877,
                -0.0046848091296851635,
                0.030346160754561424,
                0.9967206120491028
            ]
        },
        {
            "name" : "Light",
            "rotation" : [
                0.08013515919446945,
                0.7791898250579834,
                0.5769075155258179,
                0.2315583974123001
            ],
            "translation" : [
                -0.6819314956665039,
                4.660831928253174,
                7.841492176055908
            ]
        },
        {
            "name" : "Camera",
            "rotation" : [
                0.483536034822464,
                0.33687159419059753,
                -0.20870360732078552,
                0.7804827094078064
            ],
            "translation" : [
                7.358891487121582,
                4.958309173583984,
                6.925790786743164
            ]
        },
        {
            "mesh" : 1,
            "name" : "Plane",
            "rotation" : [
                -0.8331056833267212,
                -0.028258511796593666,
                0.012402744963765144,
                0.5522522330284119
            ],
            "scale" : [
                3.729510545730591,
                3.5037474632263184,
                2.2281196117401123
            ],
            "translation" : [
                0.09407743811607361,
                2.3657712936401367,
                0.23419557511806488
            ]
        }
    ],
    "materials" : [
        {
            "name" : "Material_0.002",
            "pbrMetallicRoughness" : {
                "baseColorTexture" : {
                    "index" : 0,
                    "texCoord" : 0
                },
                "metallicFactor" : 0
            }
        },
        {
            "alphaMode" : "BLEND",
            "doubleSided" : true,
            "extensions" : {
                "KHR_materials_clearcoat" : {
                    "clearcoatFactor" : 1,
                    "clearcoatRoughnessFactor" : 0.7299999594688416
                }
            },
            "name" : "clear_glass",
            "pbrMetallicRoughness" : {
                "baseColorFactor" : [
                    0.800000011920929,
                    0.800000011920929,
                    0.800000011920929,
                    0.48636364936828613
                ],
                "metallicFactor" : 0.07727272808551788,
                "roughnessFactor" : 0.6818181872367859
            }
        }
    ],
    "meshes" : [
        {
            "name" : "Mesh_0.002",
            "primitives" : [
                {
                    "attributes" : {
                        "POSITION" : 0,
                        "NORMAL" : 1,
                        "TEXCOORD_0" : 2,
                        "COLOR_0" : 3
                    },
                    "indices" : 4,
                    "material" : 0
                }
            ]
        },
        {
            "name" : "Plane",
            "primitives" : [
                {
                    "attributes" : {
                        "POSITION" : 5,
                        "NORMAL" : 6,
                        "TEXCOORD_0" : 7
                    },
                    "indices" : 8,
                    "material" : 1
                }
            ]
        }
    ],
    "textures" : [
        {
            "sampler" : 0,
            "source" : 0
        }
    ],
    "images" : [
        {
            "bufferView" : 5,
            "mimeType" : "image/png",
            "name" : "Image_0"
        }
    ],
    "accessors" : [
        {
            "bufferView" : 0,
            "componentType" : 5126,
            "count" : 14919,
            "max" : [
                3.874508857727051,
                3.867033004760742,
                1.1335573196411133
            ],
            "min" : [
                -3.9793572425842285,
                -1.8399996757507324,
                -1.2327332496643066
            ],
            "type" : "VEC3"
        },
        {
            "bufferView" : 1,
            "componentType" : 5126,
            "count" : 14919,
            "type" : "VEC3"
        },
        {
            "bufferView" : 2,
            "componentType" : 5126,
            "count" : 14919,
            "type" : "VEC2"
        },
        {
            "bufferView" : 3,
            "componentType" : 5123,
            "count" : 14919,
            "normalized" : true,
            "type" : "VEC4"
        },
        {
            "bufferView" : 4,
            "componentType" : 5123,
            "count" : 87438,
            "type" : "SCALAR"
        },
        {
            "bufferView" : 6,
            "componentType" : 5126,
            "count" : 4,
            "max" : [
                1,
                0,
                1
            ],
            "min" : [
                -1,
                0,
                -1
            ],
            "type" : "VEC3"
        },
        {
            "bufferView" : 7,
            "componentType" : 5126,
            "count" : 4,
            "type" : "VEC3"
        },
        {
            "bufferView" : 8,
            "componentType" : 5126,
            "count" : 4,
            "type" : "VEC2"
        },
        {
            "bufferView" : 9,
            "componentType" : 5123,
            "count" : 6,
            "type" : "SCALAR"
        }
    ],
    "bufferViews" : [
        {
            "buffer" : 0,
            "byteLength" : 179028,
            "byteOffset" : 0
        },
        {
            "buffer" : 0,
            "byteLength" : 179028,
            "byteOffset" : 179028
        },
        {
            "buffer" : 0,
            "byteLength" : 119352,
            "byteOffset" : 358056
        },
        {
            "buffer" : 0,
            "byteLength" : 119352,
            "byteOffset" : 477408
        },
        {
            "buffer" : 0,
            "byteLength" : 174876,
            "byteOffset" : 596760
        },
        {
            "buffer" : 0,
            "byteLength" : 1074917,
            "byteOffset" : 771636
        },
        {
            "buffer" : 0,
            "byteLength" : 48,
            "byteOffset" : 1846556
        },
        {
            "buffer" : 0,
            "byteLength" : 48,
            "byteOffset" : 1846604
        },
        {
            "buffer" : 0,
            "byteLength" : 32,
            "byteOffset" : 1846652
        },
        {
            "buffer" : 0,
            "byteLength" : 12,
            "byteOffset" : 1846684
        }
    ],
    "samplers" : [
        {
            "magFilter" : 9729,
            "minFilter" : 9986,
            "wrapS" : 33071,
            "wrapT" : 33071
        }
    ],
    "buffers" : [
        {
            "byteLength" : 1846696,
            "uri" : "data:application/octet-stream;base64,"
        }
    ]
}
